mtllib Controller3DOF.mtl
o Controller3DOF
v 0.01690 0.00200 -0.03953
v 0.01516 0.00200 -0.04375
v 0.01237 0.00200 -0.04737
v 0.00875 0.00200 -0.05016
v 0.00453 0.00200 -0.05190
v 0.00263 -0.01407 -0.04375
v 0.00215 -0.01149 -0.04737
v -0.00875 0.00200 -0.05016
v -0.01237 0.00200 -0.04737
v 0.00152 -0.00813 -0.05016
v 0.00079 -0.00421 -0.05190
v -0.01750 0.00200 -0.03500
v -0.01750 0.00200 0.03500
v -0.01690 0.00200 0.03953
v -0.01516 0.00200 0.04375
v -0.00079 -0.00421 0.05190
v -0.00152 -0.00812 0.05016
v -0.00453 0.00200 0.05190
v -0.00215 -0.01149 0.04737
v 0.00453 0.00200 0.05190
v 0.00875 0.00200 0.05016
v 0.01237 0.00200 0.04737
v -0.00263 -0.01407 0.04375
v -0.00294 -0.01570 0.03953
v -0.00304 -0.01625 0.03500
v -0.00304 -0.01625 -0.03500
v -0.00294 -0.01570 -0.03953
v -0.00263 -0.01407 -0.04375
v 0.01237 0.00000 -0.04737
v 0.00875 0.00000 -0.05016
v 0.00453 0.00000 -0.05190
v -0.00000 0.00000 -0.05250
v -0.00215 -0.01149 -0.04737
v -0.00875 0.00000 -0.05016
v -0.00152 -0.00813 -0.05016
v -0.01516 0.00000 -0.04375
v -0.01690 0.00000 -0.03953
v -0.01750 0.00000 -0.03500
v -0.01750 -0.00000 0.03500
v -0.00079 -0.00421 -0.05190
v -0.00226 -0.00370 0.05190
v -0.01237 -0.00000 0.04737
v -0.00875 -0.00000 0.05016
v -0.00437 -0.00715 0.05016
v 0.00000 -0.00000 0.05250
v -0.00619 -0.01010 0.04737
v 0.00875 -0.00000 0.05016
v -0.00758 -0.01238 0.04375
v -0.00845 -0.01380 0.03953
v -0.00875 -0.01429 0.03500
v -0.00875 -0.01429 -0.03500
v -0.00845 -0.01380 -0.03953
v -0.00758 -0.01238 -0.04375
v -0.00619 -0.01010 -0.04737
v -0.00437 -0.00715 -0.05016
v -0.00226 -0.00370 -0.05190
v -0.00347 -0.00275 0.05190
v -0.00000 0.00200 -0.05250
v -0.00453 0.00200 -0.05190
v -0.00670 -0.00530 0.05016
v -0.00948 -0.00750 0.04737
v -0.01516 0.00200 -0.04375
v -0.01690 0.00200 -0.03953
v -0.01161 -0.00919 0.04375
v -0.01295 -0.01025 0.03953
v -0.01341 -0.01061 0.03500
v -0.01341 -0.01061 -0.03500
v -0.01237 0.00200 0.04737
v -0.00875 0.00200 0.05016
v -0.01295 -0.01025 -0.03953
v 0.00000 0.00200 0.05250
v -0.01161 -0.00919 -0.04375
v -0.00948 -0.00750 -0.04737
v -0.00670 -0.00530 -0.05016
v 0.01516 0.00200 0.04375
v 0.01690 0.00200 0.03953
v 0.01750 0.00200 0.03500
v 0.01750 0.00200 -0.03500
v -0.00347 -0.00275 -0.05190
v -0.00426 -0.00146 0.05190
v -0.00453 0.00000 0.05190
v -0.00822 -0.00282 0.05016
v -0.01163 -0.00399 0.04737
v -0.01516 0.00000 0.04375
v -0.01690 0.00000 0.03953
v -0.01424 -0.00489 0.04375
v -0.01588 -0.00545 0.03953
v -0.01644 -0.00564 0.03500
v -0.01644 -0.00564 -0.03500
v -0.01237 -0.00000 -0.04737
v -0.01588 -0.00545 -0.03953
v -0.00453 -0.00000 -0.05190
v 0.00453 0.00000 0.05190
v -0.01424 -0.00489 -0.04375
v 0.01237 0.00000 0.04737
v 0.01516 0.00000 0.04375
v 0.01690 0.00000 0.03953
v 0.01750 0.00000 0.03500
v 0.01750 -0.00000 -0.03500
v 0.01690 -0.00000 -0.03953
v 0.01516 -0.00000 -0.04375
v -0.01163 -0.00399 -0.04737
v -0.00822 -0.00282 -0.05016
v -0.00426 -0.00146 -0.05190
v 0.00426 -0.00146 0.05190
v 0.00822 -0.00282 0.05016
v 0.01163 -0.00399 0.04737
v 0.01424 -0.00489 0.04375
v 0.01588 -0.00545 0.03953
v 0.01644 -0.00564 0.03500
v 0.01644 -0.00564 -0.03500
v 0.01588 -0.00545 -0.03953
v 0.01424 -0.00489 -0.04375
v 0.01163 -0.00399 -0.04737
v 0.00822 -0.00282 -0.05016
v 0.00426 -0.00146 -0.05190
v 0.00347 -0.00275 0.05190
v 0.00670 -0.00530 0.05016
v 0.00948 -0.00750 0.04737
v 0.01161 -0.00919 0.04375
v 0.01295 -0.01025 0.03953
v 0.01341 -0.01061 0.03500
v 0.01341 -0.01061 -0.03500
v 0.01295 -0.01025 -0.03953
v 0.01161 -0.00919 -0.04375
v 0.00948 -0.00750 -0.04737
v 0.00670 -0.00530 -0.05016
v 0.00347 -0.00275 -0.05190
v 0.00226 -0.00370 0.05190
v 0.00437 -0.00715 0.05016
v 0.00619 -0.01010 0.04737
v 0.00758 -0.01238 0.04375
v 0.00845 -0.01380 0.03953
v 0.00875 -0.01429 0.03500
v 0.00875 -0.01429 -0.03500
v 0.00845 -0.01380 -0.03953
v 0.00758 -0.01238 -0.04375
v 0.00619 -0.01010 -0.04737
v 0.00437 -0.00715 -0.05016
v 0.00226 -0.00370 -0.05190
v 0.00079 -0.00421 0.05190
v 0.00152 -0.00812 0.05016
v 0.00215 -0.01149 0.04737
v 0.00263 -0.01407 0.04375
v 0.00294 -0.01570 0.03953
v 0.00304 -0.01625 0.03500
v 0.00304 -0.01625 -0.03500
v 0.00294 -0.01570 -0.03953
vt 0.306189 0.199872
vt 0.311332 0.238938
vt 0.009458 0.238938
vt 0.540507 0.074898
vt 0.560040 0.106798
vt 0.530114 0.083121
vt 0.014601 0.199872
vt 0.053667 0.132209
vt 0.235864 0.108222
vt 0.267124 0.132209
vt 0.788526 0.070559
vt 0.801275 0.074936
vt 0.781737 0.106833
vt 0.267124 0.949414
vt 0.235864 0.973400
vt 0.053667 0.949414
vt 0.029680 0.163469
vt 0.291110 0.163469
vt 0.306189 0.881750
vt 0.014601 0.881750
vt 0.009458 0.842685
vt 0.400291 0.842662
vt 0.351615 0.842662
vt 0.351615 0.238915
vt 0.485840 0.881719
vt 0.447052 0.881719
vt 0.443113 0.842653
vt 0.493379 0.918122
vt 0.458603 0.918122
vt 0.291110 0.918154
vt 0.029680 0.918154
vt 0.311332 0.842685
vt 0.505373 0.949382
vt 0.476978 0.949382
vt 0.522306 0.045173
vt 0.502228 0.061058
vt 0.478281 0.042112
vt 0.670421 0.199841
vt 0.631634 0.199841
vt 0.624094 0.163438
vt 0.794852 0.036757
vt 0.819480 0.045213
vt 0.800285 0.007731
vt 0.835114 0.019689
vt 0.334365 0.918130
vt 0.334365 0.881727
vt 0.351615 0.881727
vt 0.334365 0.949390
vt 0.351615 0.918130
vt 0.484572 0.124048
vt 0.453312 0.124048
vt 0.453312 0.106798
vt 0.520975 0.124048
vt 0.484572 0.106798
vt 0.560040 0.124048
vt 0.520975 0.106798
vt 0.599105 0.124048
vt 0.635509 0.124048
vt 0.599105 0.106798
vt 0.666769 0.124048
vt 0.635509 0.106798
vt 0.783091 0.918150
vt 0.783091 0.949410
vt 0.765841 0.949410
vt 0.783091 0.881747
vt 0.765841 0.918150
vt 0.783091 0.842682
vt 0.765841 0.881747
vt 0.783091 0.238935
vt 0.765841 0.842682
vt 0.783091 0.199869
vt 0.765841 0.238935
vt 0.783091 0.163466
vt 0.765841 0.199869
vt 0.783091 0.132206
vt 0.765841 0.163466
vt 0.706266 0.124072
vt 0.675006 0.124067
vt 0.675009 0.106817
vt 0.742669 0.124077
vt 0.706269 0.106822
vt 0.781734 0.124083
vt 0.742672 0.106827
vt 0.820800 0.124089
vt 0.857203 0.124094
vt 0.820802 0.106839
vt 0.888463 0.124099
vt 0.857205 0.106844
vt 0.334365 0.163447
vt 0.334365 0.132187
vt 0.351615 0.132187
vt 0.334365 0.199850
vt 0.351615 0.163447
vt 0.334365 0.238915
vt 0.351615 0.199850
vt 0.334365 0.842662
vt 0.398632 0.881727
vt 0.536038 0.163438
vt 0.493379 0.163438
vt 0.505373 0.132178
vt 0.533420 0.199841
vt 0.485840 0.199841
vt 0.532527 0.238906
vt 0.483268 0.238906
vt 0.532527 0.842653
vt 0.483268 0.842653
vt 0.533420 0.881719
vt 0.674361 0.238906
vt 0.634205 0.238906
vt 0.536038 0.918122
vt 0.540204 0.949382
vt 0.546935 0.036720
vt 0.506676 0.019647
vt 0.553257 0.070523
vt 0.818448 0.094240
vt 0.393769 0.918130
vt 0.774959 0.070557
vt 0.768643 0.036753
vt 0.763219 0.007725
vt 0.581435 0.163438
vt 0.540204 0.132178
vt 0.584054 0.199841
vt 0.674361 0.842653
vt 0.634205 0.842653
vt 0.630957 0.082460
vt 0.617852 0.061058
vt 0.641799 0.042112
vt 0.596749 0.094200
vt 0.589966 0.083121
vt 0.584947 0.238906
vt 0.584947 0.842653
vt 0.852658 0.082506
vt 0.584054 0.881719
vt 0.581435 0.918122
vt 0.577270 0.949382
vt 0.658870 0.918122
vt 0.624094 0.918122
vt 0.631634 0.881719
vt 0.745030 0.094229
vt 0.710824 0.082484
vt 0.681450 0.072399
vt 0.723687 0.163466
vt 0.731422 0.132206
vt 0.718824 0.199869
vt 0.717166 0.238935
vt 0.717166 0.842682
vt 0.573145 0.036720
vt 0.541507 0.007693
vt 0.566824 0.070523
vt 0.762209 0.074930
vt 0.744012 0.045202
vt 0.640496 0.949382
vt 0.612101 0.949382
vt 0.718824 0.881747
vt 0.723687 0.918150
vt 0.731422 0.949410
vt 0.660332 0.072379
vt 0.728386 0.019674
vt 0.577270 0.132178
vt 0.386034 0.949390
vt 0.351615 0.949390
vt 0.489123 0.082460
vt 0.523331 0.094200
vt 0.597774 0.045173
vt 0.613404 0.019647
vt 0.579573 0.074898
vt 0.751815 0.083152
vt 0.723932 0.061084
vt 0.699988 0.042135
vt 0.882034 0.072429
vt 0.888466 0.106849
vt 0.393769 0.163447
vt 0.398632 0.199850
vt 0.439978 0.199850
vt 0.443095 0.238915
vt 0.400291 0.238915
vt 0.686617 0.163466
vt 0.701155 0.132206
vt 0.677478 0.199869
vt 0.677478 0.881747
vt 0.686617 0.918150
vt 0.439978 0.881727
vt 0.811666 0.083161
vt 0.430839 0.918130
vt 0.416301 0.949390
vt 0.459748 0.072379
vt 0.670421 0.881719
vt 0.578573 0.007693
vt 0.701155 0.949410
vt 0.839556 0.061102
vt 0.863505 0.042159
vt 0.458603 0.163438
vt 0.476978 0.132178
vt 0.658870 0.163438
vt 0.612101 0.132178
vt 0.447052 0.199841
vt 0.430839 0.163447
vt 0.386034 0.132187
vt 0.084927 0.973400
vt 0.199461 0.988479
vt 0.416301 0.132187
vt 0.160395 0.993622
vt 0.121330 0.988479
vt 0.666769 0.106798
vt 0.765841 0.132206
vt 0.640496 0.132178
vt 0.084927 0.108222
vt 0.199461 0.093144
vt 0.121330 0.093144
vt 0.160395 0.088001
vn 0.6717 0.7098 0.2120
vn 0.8284 0.5554 0.0725
vn -0.5987 0.8006 0.0261
vn 0.1531 -0.2524 -0.9554
vn -0.0110 -0.0679 -0.9976
vn 0.2258 -0.1821 -0.9570
vn -0.6877 0.7098 0.1523
vn -0.5194 0.7098 0.4758
vn 0.3251 0.7098 0.6249
vn 0.4758 0.7098 0.5194
vn 0.0357 -0.2971 0.9542
vn 0.1296 -0.2666 0.9551
vn 0.0110 -0.0679 0.9976
vn 0.5194 0.7098 -0.4758
vn 0.3786 0.7098 -0.5940
vn -0.4758 0.7098 -0.5194
vn -0.6249 0.7098 0.3251
vn 0.5940 0.7098 0.3786
vn 0.6877 0.7098 -0.1523
vn -0.6717 0.7098 -0.2120
vn -0.7037 0.7078 -0.0616
vn 0.9315 -0.3580 -0.0645
vn 0.9920 -0.0920 -0.0868
vn 0.9948 -0.0922 0.0434
vn 0.4658 -0.8493 -0.2483
vn 0.7251 -0.6406 -0.2528
vn 0.7470 -0.6618 -0.0634
vn 0.4223 -0.7665 -0.4839
vn 0.6540 -0.5755 -0.4910
vn 0.6249 0.7098 -0.3251
vn -0.5940 0.7098 -0.3786
vn 0.7058 0.7078 -0.0308
vn 0.3502 -0.6315 -0.6918
vn 0.5385 -0.4711 -0.6987
vn 0.2526 -0.4499 -0.8566
vn 0.3847 -0.3329 -0.8609
vn -0.7251 -0.6406 0.2528
vn -0.4658 -0.8493 0.2483
vn -0.4223 -0.7665 0.4839
vn 0.0792 -0.5146 0.8537
vn 0.2413 -0.4564 0.8564
vn 0.1144 -0.7171 0.6875
vn 0.3412 -0.6363 0.6918
vn 0.9499 -0.0881 -0.2998
vn 0.8406 -0.0781 -0.5359
vn 0.6740 -0.0628 -0.7361
vn 0.2120 0.7098 -0.6718
vn 0.4610 -0.0430 -0.8863
vn 0.0415 0.3184 -0.9470
vn 0.2332 -0.0193 -0.9722
vn -0.1795 0.5576 -0.8105
vn -0.3251 0.7098 -0.6249
vn -0.3007 -0.0281 -0.9533
vn -0.5367 -0.0500 -0.8423
vn -0.7356 -0.0684 -0.6739
vn -0.8841 -0.0821 -0.4601
vn -0.9724 -0.0902 -0.2154
vn -0.9948 -0.0922 -0.0434
vn -0.9920 -0.0920 0.0868
vn -0.9499 -0.0881 0.2998
vn -0.8406 -0.0781 0.5359
vn -0.3786 0.7098 0.5940
vn -0.6740 -0.0628 0.7361
vn -0.2498 0.5576 0.7916
vn -0.4610 -0.0430 0.8863
vn -0.0415 0.3184 0.9470
vn -0.2332 -0.0193 0.9722
vn 0.1523 0.7098 0.6878
vn 0.3007 -0.0281 0.9533
vn 0.5367 -0.0500 0.8423
vn 0.7356 -0.0685 0.6739
vn 0.8841 -0.0821 0.4601
vn 0.9724 -0.0902 0.2154
vn 0.9027 -0.3451 -0.2570
vn 0.1410 -0.8661 0.4797
vn 0.4161 -0.7696 0.4843
vn 0.1578 -0.9563 0.2459
vn 0.4627 -0.8508 0.2489
vn 0.1640 -0.9845 0.0620
vn 0.4782 -0.8760 0.0628
vn 0.1645 -0.9844 -0.0619
vn 0.4788 -0.8757 -0.0622
vn 0.1611 -0.9559 -0.2457
vn -0.7470 -0.6618 0.0634
vn -0.4788 -0.8757 0.0622
vn 0.1476 -0.8650 -0.4795
vn 0.1242 -0.7155 -0.6875
vn 0.0917 -0.5125 -0.8538
vn 0.0623 -0.2922 -0.9543
vn 0.2620 -0.1164 0.9580
vn 0.8110 -0.3080 -0.4975
vn -0.0623 -0.2922 0.9543
vn -0.0917 -0.5125 0.8538
vn -0.1242 -0.7155 0.6875
vn -0.1476 -0.8650 0.4795
vn -0.1611 -0.9559 0.2457
vn -0.7466 -0.6622 -0.0640
vn -0.4782 -0.8760 -0.0628
vn -0.4664 -0.1873 -0.8645
vn -0.3760 -0.3433 -0.8607
vn -0.5313 -0.4791 -0.6987
vn -0.2620 -0.1164 -0.9580
vn -0.2082 -0.2039 -0.9566
vn -0.1644 -0.9845 0.0614
vn -0.1640 -0.9845 -0.0620
vn 0.4664 -0.1873 0.8645
vn -0.1578 -0.9563 -0.2460
vn -0.1410 -0.8661 -0.4797
vn -0.1144 -0.7171 -0.6875
vn -0.6490 -0.5809 -0.4913
vn -0.4162 -0.7696 -0.4842
vn -0.4627 -0.8508 -0.2489
vn -0.2714 -0.0894 0.9583
vn -0.4711 -0.1742 0.8647
vn -0.6639 -0.2498 0.7048
vn -0.8110 -0.3080 0.4975
vn -0.9027 -0.3451 0.2570
vn -0.9315 -0.3580 0.0645
vn -0.9313 -0.3584 -0.0651
vn -0.0792 -0.5146 -0.8537
vn -0.0357 -0.2971 -0.9542
vn -0.1531 -0.2524 0.9554
vn -0.2526 -0.4499 0.8566
vn -0.3412 -0.6363 -0.6919
vn -0.9011 -0.3488 -0.2575
vn -0.8080 -0.3152 -0.4977
vn -0.6599 -0.2602 -0.7048
vn -0.3502 -0.6315 0.6918
vn 0.6639 -0.2498 -0.7048
vn 0.4711 -0.1742 -0.8647
vn 0.2714 -0.0894 -0.9583
vn -0.2413 -0.4564 -0.8564
vn -0.1296 -0.2666 -0.9551
vn -0.2258 -0.1821 0.9570
vn -0.3847 -0.3329 0.8609
vn -0.5385 -0.4711 0.6987
vn 0.6599 -0.2602 0.7048
vn 0.8080 -0.3152 0.4977
vn 0.9011 -0.3488 0.2575
vn 0.7224 -0.6433 0.2535
vn 0.7466 -0.6622 0.0640
vn 0.9313 -0.3584 0.0651
vn -0.6540 -0.5755 0.4910
vn -0.7224 -0.6433 -0.2535
vn 0.2082 -0.2039 0.9566
vn 0.3760 -0.3433 0.8607
vn 0.5313 -0.4791 0.6987
vn 0.6490 -0.5809 0.4913
usemtl None
s 1
f 76/1/1 77/2/2 13/3/3
f 140/4/4 32/5/5 128/6/6
f 13/3/3 14/7/7 76/1/1
f 68/8/8 21/9/9 22/10/10
f 141/11/11 129/12/12 45/13/13
f 3/14/14 4/15/15 9/16/16
f 14/7/7 15/17/17 75/18/18
f 1/19/19 63/20/20 12/21/21
f 111/22/22 99/23/23 98/24/24
f 136/25/25 124/26/26 123/27/27
f 137/28/28 125/29/29 124/26/26
f 2/30/30 62/31/31 63/20/20
f 3/14/14 9/16/16 62/31/31
f 12/21/21 78/32/32 1/19/19
f 1/19/19 2/30/30 63/20/20
f 13/3/3 77/2/2 78/32/32
f 138/33/33 126/34/34 125/29/29
f 15/17/17 68/8/8 22/10/10
f 14/7/7 75/18/18 76/1/1
f 139/35/35 127/36/36 126/37/34
f 65/38/37 49/39/38 48/40/39
f 140/4/4 128/6/6 127/36/36
f 142/41/40 130/42/41 129/12/12
f 143/43/42 131/44/43 130/42/41
f 2/45/30 1/46/19 100/47/44
f 3/48/14 2/45/30 101/49/45
f 4/50/15 3/51/14 29/52/46
f 5/53/47 4/50/15 30/54/48
f 58/55/49 5/53/47 31/56/50
f 59/57/51 58/55/49 32/5/5
f 8/58/52 59/57/51 92/59/53
f 9/60/16 8/58/52 34/61/54
f 62/62/31 9/63/16 90/64/55
f 63/65/20 62/62/31 36/66/56
f 12/67/21 63/65/20 37/68/57
f 13/69/3 12/67/21 38/70/58
f 14/71/7 13/69/3 39/72/59
f 15/73/17 14/71/7 85/74/60
f 68/75/8 15/73/17 84/76/61
f 69/77/62 68/78/8 42/79/63
f 18/80/64 69/77/62 43/81/65
f 71/82/66 18/80/64 81/83/67
f 20/84/68 71/82/66 45/13/13
f 21/85/9 20/84/68 93/86/69
f 22/87/10 21/85/9 47/88/70
f 75/89/18 22/90/10 95/91/71
f 76/92/1 75/89/18 96/93/72
f 77/94/2 76/92/1 97/95/73
f 78/96/32 77/94/2 98/24/24
f 1/46/19 78/96/32 99/23/23
f 112/97/74 100/47/44 99/23/23
f 144/98/75 132/99/76 131/100/43
f 145/101/77 133/102/78 132/99/76
f 146/103/79 134/104/80 133/102/78
f 147/105/81 135/106/82 134/104/80
f 148/107/83 136/25/25 135/106/82
f 66/108/84 50/109/85 49/39/38
f 6/110/86 137/28/28 136/25/25
f 7/111/87 138/33/33 137/28/28
f 10/112/88 139/35/35 138/113/33
f 11/114/89 140/4/4 139/35/35
f 11/114/89 32/5/5 140/4/4
f 105/115/90 93/86/69 45/13/13
f 113/116/91 101/49/45 100/47/44
f 16/117/92 141/11/11 45/13/13
f 17/118/93 142/41/40 141/11/11
f 19/119/94 143/43/42 142/41/40
f 23/120/95 144/98/75 143/121/42
f 24/122/96 145/101/77 144/98/75
f 67/123/97 51/124/98 50/109/85
f 103/125/99 74/126/100 73/127/101
f 104/128/102 79/129/103 74/126/100
f 104/128/102 32/5/5 79/129/103
f 25/130/104 146/103/79 145/101/77
f 26/131/105 147/105/81 146/103/79
f 106/132/106 47/88/70 93/86/69
f 27/133/107 148/107/83 147/105/81
f 28/134/108 6/110/86 148/107/83
f 33/135/109 7/111/87 6/110/86
f 72/136/110 53/137/111 52/138/112
f 81/83/67 80/139/113 45/13/13
f 43/81/65 82/140/114 80/139/113
f 42/79/63 83/141/115 82/140/114
f 84/76/61 86/142/116 83/143/115
f 85/74/60 87/144/117 86/142/116
f 39/72/59 88/145/118 87/144/117
f 38/70/58 89/146/119 88/145/118
f 35/147/120 10/112/88 7/148/87
f 40/149/121 11/114/89 10/112/88
f 40/149/121 32/5/5 11/114/89
f 41/150/122 16/117/92 45/13/13
f 44/151/123 17/118/93 16/117/92
f 73/152/101 54/153/124 53/137/111
f 37/68/57 91/154/125 89/146/119
f 36/66/56 94/155/126 91/154/125
f 90/64/55 102/156/127 94/155/126
f 34/61/54 103/125/99 102/157/127
f 92/59/53 104/128/102 103/125/99
f 92/59/53 32/5/5 104/128/102
f 46/158/128 19/119/94 17/118/93
f 48/40/39 23/120/95 19/159/94
f 49/39/38 24/122/96 23/120/95
f 114/160/129 29/161/46 101/49/45
f 115/162/130 30/54/48 29/52/46
f 116/163/131 31/56/50 30/54/48
f 116/163/131 32/5/5 31/56/50
f 74/126/100 55/164/132 54/165/124
f 79/129/103 56/166/133 55/164/132
f 79/129/103 32/5/5 56/166/133
f 80/139/113 57/167/134 45/13/13
f 82/140/114 60/168/135 57/167/134
f 83/141/115 61/169/136 60/168/135
f 107/170/137 95/171/71 47/88/70
f 108/172/138 96/93/72 95/91/71
f 109/173/139 97/95/73 96/93/72
f 121/174/140 109/173/139 108/172/138
f 122/175/141 110/176/142 109/173/139
f 123/27/27 111/22/22 110/176/142
f 50/109/85 25/130/104 24/122/96
f 51/124/98 26/131/105 25/130/104
f 86/142/116 64/177/143 61/178/136
f 87/144/117 65/179/37 64/177/143
f 88/145/118 66/108/84 65/179/37
f 89/146/119 67/123/97 66/108/84
f 91/154/125 70/180/144 67/123/97
f 94/155/126 72/181/110 70/180/144
f 124/182/26 112/97/74 111/22/22
f 117/183/145 105/115/90 45/13/13
f 125/184/29 113/116/91 112/97/74
f 126/185/34 114/160/129 113/116/91
f 127/36/36 115/162/130 114/186/129
f 52/138/112 27/133/107 26/131/105
f 53/137/111 28/134/108 27/133/107
f 54/153/124 33/135/109 28/134/108
f 70/187/144 52/138/112 51/124/98
f 55/164/132 35/147/120 33/188/109
f 102/156/127 73/189/101 72/181/110
f 56/166/133 40/149/121 35/147/120
f 56/166/133 32/5/5 40/149/121
f 128/6/6 116/163/131 115/162/130
f 118/190/146 106/132/106 105/115/90
f 119/191/147 107/170/137 106/132/106
f 128/6/6 32/5/5 116/163/131
f 129/12/12 117/183/145 45/13/13
f 130/42/41 118/190/146 117/183/145
f 131/44/43 119/191/147 118/190/146
f 132/99/76 120/192/148 119/193/147
f 57/167/134 41/150/122 45/13/13
f 60/168/135 44/151/123 41/150/122
f 61/169/136 46/158/128 44/151/123
f 64/194/143 48/40/39 46/195/128
f 133/102/78 121/196/140 120/192/148
f 134/104/80 122/175/141 121/196/140
f 110/176/142 98/24/24 97/95/73
f 120/197/148 108/172/138 107/198/137
f 135/106/82 123/27/27 122/175/141
f 132/99/76 133/102/78 120/192/148
f 133/102/78 134/104/80 121/196/140
f 4/15/15 8/199/52 9/16/16
f 4/15/15 5/200/47 8/199/52
f 110/176/142 111/22/22 98/24/24
f 135/106/82 136/25/25 123/27/27
f 136/25/25 137/28/28 124/26/26
f 2/30/30 3/14/14 62/31/31
f 109/173/139 110/176/142 97/95/73
f 119/201/147 120/197/148 107/198/137
f 134/104/80 135/106/82 122/175/141
f 12/21/21 13/3/3 78/32/32
f 137/28/28 138/33/33 125/29/29
f 5/200/47 58/202/49 59/203/51
f 59/203/51 8/199/52 5/200/47
f 138/113/33 139/35/35 126/37/34
f 64/194/143 65/38/37 48/40/39
f 139/35/35 140/4/4 127/36/36
f 141/11/11 142/41/40 129/12/12
f 142/41/40 143/43/42 130/42/41
f 101/49/45 2/45/30 100/47/44
f 29/161/46 3/48/14 101/49/45
f 30/54/48 4/50/15 29/52/46
f 31/56/50 5/53/47 30/54/48
f 32/5/5 58/55/49 31/56/50
f 92/59/53 59/57/51 32/5/5
f 34/61/54 8/58/52 92/59/53
f 90/204/55 9/60/16 34/61/54
f 36/66/56 62/62/31 90/64/55
f 37/68/57 63/65/20 36/66/56
f 38/70/58 12/67/21 37/68/57
f 39/72/59 13/69/3 38/70/58
f 85/74/60 14/71/7 39/72/59
f 84/76/61 15/73/17 85/74/60
f 42/205/63 68/75/8 84/76/61
f 43/81/65 69/77/62 42/79/63
f 81/83/67 18/80/64 43/81/65
f 45/13/13 71/82/66 81/83/67
f 93/86/69 20/84/68 45/13/13
f 47/88/70 21/85/9 93/86/69
f 95/171/71 22/87/10 47/88/70
f 96/93/72 75/89/18 95/91/71
f 97/95/73 76/92/1 96/93/72
f 98/24/24 77/94/2 97/95/73
f 99/23/23 78/96/32 98/24/24
f 100/47/44 1/46/19 99/23/23
f 111/22/22 112/97/74 99/23/23
f 143/121/42 144/98/75 131/100/43
f 144/98/75 145/101/77 132/99/76
f 145/101/77 146/103/79 133/102/78
f 146/103/79 147/105/81 134/104/80
f 147/105/81 148/107/83 135/106/82
f 65/38/37 66/108/84 49/39/38
f 148/107/83 6/110/86 136/25/25
f 6/110/86 7/111/87 137/28/28
f 7/148/87 10/112/88 138/113/33
f 10/112/88 11/114/89 139/35/35
f 112/97/74 113/116/91 100/47/44
f 16/117/92 17/118/93 141/11/11
f 17/118/93 19/119/94 142/41/40
f 19/159/94 23/120/95 143/121/42
f 23/120/95 24/122/96 144/98/75
f 66/108/84 67/123/97 50/109/85
f 102/157/127 103/125/99 73/127/101
f 103/125/99 104/128/102 74/126/100
f 24/122/96 25/130/104 145/101/77
f 25/130/104 26/131/105 146/103/79
f 105/115/90 106/132/106 93/86/69
f 26/131/105 27/133/107 147/105/81
f 27/133/107 28/134/108 148/107/83
f 28/134/108 33/135/109 6/110/86
f 70/187/144 72/136/110 52/138/112
f 81/83/67 43/81/65 80/139/113
f 43/81/65 42/79/63 82/140/114
f 42/205/63 84/76/61 83/143/115
f 84/76/61 85/74/60 86/142/116
f 85/74/60 39/72/59 87/144/117
f 39/72/59 38/70/58 88/145/118
f 33/188/109 35/147/120 7/148/87
f 35/147/120 40/149/121 10/112/88
f 41/150/122 44/151/123 16/117/92
f 72/136/110 73/152/101 53/137/111
f 38/70/58 37/68/57 89/146/119
f 37/68/57 36/66/56 91/154/125
f 36/66/56 90/64/55 94/155/126
f 90/204/55 34/61/54 102/157/127
f 34/61/54 92/59/53 103/125/99
f 44/151/123 46/158/128 17/118/93
f 46/195/128 48/40/39 19/159/94
f 48/40/39 49/39/38 23/120/95
f 113/116/91 114/160/129 101/49/45
f 114/186/129 115/162/130 29/52/46
f 115/162/130 116/163/131 30/54/48
f 73/127/101 74/126/100 54/165/124
f 74/126/100 79/129/103 55/164/132
f 80/139/113 82/140/114 57/167/134
f 82/140/114 83/141/115 60/168/135
f 106/132/106 107/170/137 47/88/70
f 107/198/137 108/172/138 95/91/71
f 108/172/138 109/173/139 96/93/72
f 120/197/148 121/174/140 108/172/138
f 121/174/140 122/175/141 109/173/139
f 122/175/141 123/27/27 110/176/142
f 49/39/38 50/109/85 24/122/96
f 50/109/85 51/124/98 25/130/104
f 83/143/115 86/142/116 61/178/136
f 86/142/116 87/144/117 64/177/143
f 87/144/117 88/145/118 65/179/37
f 88/145/118 89/146/119 66/108/84
f 89/146/119 91/154/125 67/123/97
f 91/154/125 94/155/126 70/180/144
f 123/27/27 124/182/26 111/22/22
f 124/182/26 125/184/29 112/97/74
f 125/184/29 126/185/34 113/116/91
f 126/37/34 127/36/36 114/186/129
f 51/124/98 52/138/112 26/131/105
f 52/138/112 53/137/111 27/133/107
f 53/137/111 54/153/124 28/134/108
f 67/123/97 70/187/144 51/124/98
f 54/165/124 55/164/132 33/188/109
f 94/155/126 102/156/127 72/181/110
f 55/164/132 56/166/133 35/147/120
f 127/36/36 128/6/6 115/162/130
f 117/183/145 118/190/146 105/115/90
f 118/190/146 119/191/147 106/132/106
f 129/12/12 130/42/41 117/183/145
f 130/42/41 131/44/43 118/190/146
f 131/100/43 132/99/76 119/193/147
f 57/167/134 60/168/135 41/150/122
f 60/168/135 61/169/136 44/151/123
f 61/206/136 64/194/143 46/195/128
f 69/207/62 20/208/68 21/9/9
f 15/17/17 22/10/10 75/18/18
f 68/8/8 69/207/62 21/9/9
f 69/207/62 18/209/64 20/208/68
f 18/209/64 71/210/66 20/208/68
